<svg xmlns="http://www.w3.org/2000/svg" viewBox="0 0 512 512">
<g>
	<path fill="#00b9cc" d="M30.122,111.881v288.235c0,11.323,9.265,20.589,20.588,20.589h185.294V91.293H50.71
		C39.387,91.293,30.122,100.558,30.122,111.881z M54.828,131.504h156.475v16.471H54.828V131.504z M54.828,178.012h156.475v16.472
		H54.828V178.012z M54.828,224.521h156.475v16.47H54.828V224.521z M54.828,271.021h156.475v16.471H54.828V271.021z M54.828,317.53
		h156.475v16.471H54.828V317.53z M54.828,364.031h156.475v16.471H54.828V364.031z"/>
	<path fill="#00b9cc" d="M429.534,91.293H244.24v329.412h185.294c11.324,0,20.588-9.266,20.588-20.589V111.881
		C450.122,100.558,440.857,91.293,429.534,91.293z M425.42,380.502H268.941v-16.471H425.42V380.502z M425.42,334.001H268.941V317.53
		H425.42V334.001z M425.42,287.492H268.941v-16.471H425.42V287.492z M425.42,240.991H268.941v-16.47H425.42V240.991z
		 M425.42,194.483H268.941v-16.472H425.42V194.483z M425.42,147.975H268.941v-16.471H425.42V147.975z"/>
</g>
</svg>
